<svg xmlns="http://www.w3.org/2000/svg" viewBox="0 0 120 120">
  <defs>
    <filter id="glow" x="-20%" y="-20%" width="140%" height="140%"><feGaussianBlur stdDeviation="3"/></filter>
  </defs>
  <g filter="url(#glow)" opacity=".4">
    <path d="M 16 100 L 16 50 A 36 36 0 0 1 104 50 L 104 100 C 100 112 92 112 88 100 C 84 88 76 88 72 100 C 68 112 60 112 56 100 C 52 88 44 88 40 100 C 36 112 28 112 24 100 C 22 92 18 92 16 100 Z" fill="#ff2e93"/>
  </g>
  <path d="M 16 100 L 16 50 A 36 36 0 0 1 104 50 L 104 100 C 100 112 92 112 88 100 C 84 88 76 88 72 100 C 68 112 60 112 56 100 C 52 88 44 88 40 100 C 36 112 28 112 24 100 C 22 92 18 92 16 100 Z" fill="#fff5fb" stroke="#06030c" stroke-width="2.4" stroke-linejoin="round"/>
  <ellipse cx="11" cy="68" rx="6" ry="5" fill="#fff5fb" stroke="#06030c" stroke-width="2.4"/>
  <ellipse cx="109" cy="68" rx="6" ry="5" fill="#fff5fb" stroke="#06030c" stroke-width="2.4"/>
  <rect x="28" y="42" width="64" height="18" fill="#06030c" rx="2"/>
  <rect x="30" y="44" width="26" height="14" fill="#ff2e93"/>
  <rect x="64" y="44" width="26" height="14" fill="#5cffff"/>
  <rect x="56" y="46" width="8" height="6" fill="#06030c"/>
  <rect x="34" y="46.5" width="6" height="3" fill="#fff5fb" opacity=".7"/>
  <rect x="68" y="46.5" width="6" height="3" fill="#fff5fb" opacity=".7"/>
  <ellipse cx="60" cy="74" rx="3" ry="4" fill="#06030c"/>
</svg>
