<svg xmlns="http://www.w3.org/2000/svg" viewBox="0 0 240 80">
  <defs>
    <filter id="glow2" x="-20%" y="-20%" width="140%" height="140%"><feGaussianBlur stdDeviation="1.2"/></filter>
  </defs>
  <g filter="url(#glow2)" opacity=".35">
    <path d="M 8 50 L 8 26 A 18 18 0 0 1 56 26 L 56 50 C 54 56 50 56 48 50 C 46 44 42 44 40 50 C 38 56 34 56 32 50 C 30 44 26 44 24 50 C 22 56 18 56 16 50 C 14 46 10 46 8 50 Z" fill="#ff2e93"/>
  </g>
  <path d="M 8 50 L 8 26 A 18 18 0 0 1 56 26 L 56 50 C 54 56 50 56 48 50 C 46 44 42 44 40 50 C 38 56 34 56 32 50 C 30 44 26 44 24 50 C 22 56 18 56 16 50 C 14 46 10 46 8 50 Z" fill="#fff5fb" stroke="#06030c" stroke-width="1.4" stroke-linejoin="round"/>
  <ellipse cx="6" cy="36" rx="3" ry="2.4" fill="#fff5fb" stroke="#06030c" stroke-width="1.4"/>
  <ellipse cx="58" cy="36" rx="3" ry="2.4" fill="#fff5fb" stroke="#06030c" stroke-width="1.4"/>
  <rect x="14" y="22" width="36" height="9" fill="#06030c" rx="1"/>
  <rect x="15" y="23.5" width="14" height="6" fill="#ff2e93"/>
  <rect x="35" y="23.5" width="14" height="6" fill="#5cffff"/>
  <rect x="29" y="24.5" width="6" height="3" fill="#06030c"/>
  <rect x="17" y="24.5" width="3" height="1.5" fill="#fff5fb" opacity=".7"/>
  <rect x="37" y="24.5" width="3" height="1.5" fill="#fff5fb" opacity=".7"/>
  <ellipse cx="32" cy="38" rx="1.6" ry="2.2" fill="#06030c"/>
  <text x="78" y="42" font-family="Audiowide,cursive" font-size="28" letter-spacing="6" fill="#fff5fb">ASURA</text>
  <text x="78" y="58" font-family="Major Mono Display,monospace" font-size="7" letter-spacing="3.5" fill="#5cffff">// WORKSPACE  PHANTOM</text>
</svg>
